<svg width="25" height="24" viewBox="0 0 25 24" fill="none" xmlns="http://www.w3.org/2000/svg">
<g clip-path="url(#clip0_41_363)">
<path d="M9.30005 11C9.30005 10.7348 9.40541 10.4804 9.59294 10.2929C9.78048 10.1054 10.0348 10 10.3 10H14.3C14.5653 10 14.8196 10.1054 15.0072 10.2929C15.1947 10.4804 15.3 10.7348 15.3 11C15.3 11.2652 15.1947 11.5196 15.0072 11.7071C14.8196 11.8946 14.5653 12 14.3 12H10.3C10.0348 12 9.78048 11.8946 9.59294 11.7071C9.40541 11.5196 9.30005 11.2652 9.30005 11ZM24.3 18V19C24.2985 20.3256 23.7712 21.5964 22.8338 22.5338C21.8965 23.4711 20.6256 23.9984 19.3 24H5.30005C3.97445 23.9984 2.70361 23.4711 1.76627 22.5338C0.828931 21.5964 0.301637 20.3256 0.300049 19L0.300049 18C0.301503 16.8478 0.700139 15.7313 1.42877 14.8387C2.15739 13.9462 3.17146 13.3321 4.30005 13.1V12C4.30178 10.5944 4.67379 9.21415 5.37864 7.99809C6.08349 6.78203 7.09628 5.77314 8.31505 5.073C8.31305 5.048 8.30005 5.026 8.30005 5V4C8.30005 2.93913 8.72148 1.92172 9.47162 1.17157C10.2218 0.421427 11.2392 0 12.3 0C13.3609 0 14.3783 0.421427 15.1285 1.17157C15.8786 1.92172 16.3 2.93913 16.3 4V5C16.3 5.026 16.287 5.048 16.285 5.073C17.5038 5.77314 18.5166 6.78203 19.2215 7.99809C19.9263 9.21415 20.2983 10.5944 20.3 12V13.1C21.4286 13.3321 22.4427 13.9462 23.1713 14.8387C23.9 15.7313 24.2986 16.8478 24.3 18ZM10.3 4.263C11.6103 3.91233 12.9898 3.91233 14.3 4.263V4C14.3 3.46957 14.0893 2.96086 13.7143 2.58579C13.3392 2.21071 12.8305 2 12.3 2C11.7696 2 11.2609 2.21071 10.8858 2.58579C10.5108 2.96086 10.3 3.46957 10.3 4V4.263ZM6.30005 16.535C7.0799 15.7328 8.0127 15.0952 9.04327 14.6597C10.0738 14.2243 11.1813 14 12.3 14C13.4188 14 14.5263 14.2243 15.5568 14.6597C16.5874 15.0952 17.5202 15.7328 18.3 16.535V12C18.3 10.4087 17.6679 8.88258 16.5427 7.75736C15.4175 6.63214 13.8913 6 12.3 6C10.7087 6 9.18263 6.63214 8.05741 7.75736C6.93219 8.88258 6.30005 10.4087 6.30005 12V16.535ZM5.30005 22H5.32605C4.66424 21.1396 4.30373 20.0855 4.30005 19V15.184C3.71714 15.3901 3.21214 15.7712 2.85414 16.2753C2.49613 16.7794 2.30261 17.3817 2.30005 18V19C2.30005 19.7956 2.61612 20.5587 3.17873 21.1213C3.74134 21.6839 4.5044 22 5.30005 22ZM15.3 22C15.9517 21.997 16.5847 21.7818 17.1032 21.387C17.6218 20.9923 17.9977 20.4394 18.174 19.812C17.6678 18.6771 16.8436 17.7132 15.8012 17.0368C14.7588 16.3604 13.5427 16.0004 12.3 16.0004C11.0574 16.0004 9.84134 16.3604 8.79891 17.0368C7.75648 17.7132 6.93232 18.6771 6.42605 19.812C6.60244 20.4394 6.97832 20.9923 7.49685 21.387C8.01538 21.7818 8.64836 21.997 9.30005 22H15.3ZM22.3 18C22.2975 17.3817 22.104 16.7794 21.746 16.2753C21.388 15.7712 20.883 15.3901 20.3 15.184V19C20.2964 20.0855 19.9359 21.1396 19.274 22H19.3C20.0957 22 20.8588 21.6839 21.4214 21.1213C21.984 20.5587 22.3 19.7956 22.3 19V18Z" fill="#557BFF"/>
</g>
<defs>
<clipPath id="clip0_41_363">
<rect width="24" height="24" fill="white" transform="translate(0.300049)"/>
</clipPath>
</defs>
</svg>
