<svg width="25" height="24" viewBox="0 0 25 24" fill="none" xmlns="http://www.w3.org/2000/svg">
<g clip-path="url(#clip0_41_340)">
<path d="M4.49993 6.00012C4.10568 6.00115 3.71514 5.924 3.3509 5.77312C2.98667 5.62224 2.65597 5.40063 2.37793 5.12112L0.833929 3.74712C0.635812 3.57048 0.515978 3.32238 0.500787 3.05739C0.485597 2.7924 0.576295 2.53223 0.752929 2.33412C0.929563 2.136 1.17766 2.01616 1.44265 2.00097C1.70764 1.98578 1.96781 2.07648 2.16593 2.25312L3.75093 3.66712C3.84167 3.76901 3.95229 3.85126 4.07601 3.90881C4.19972 3.96635 4.3339 3.99797 4.47029 4.00171C4.60668 4.00546 4.74239 3.98126 4.86907 3.93059C4.99576 3.87993 5.11074 3.80388 5.20693 3.70712L8.81093 0.276116C9.00472 0.103586 9.25799 0.0131348 9.51723 0.0238668C9.77648 0.0345988 10.0214 0.145674 10.2003 0.333631C10.3791 0.521588 10.478 0.77171 10.4758 1.03117C10.4737 1.29062 10.3708 1.5391 10.1889 1.72412L6.59993 5.13812C6.3237 5.41273 5.99605 5.63021 5.63572 5.77812C5.27539 5.92603 4.88944 6.00147 4.49993 6.00012ZM24.4999 4.00012C24.4999 3.7349 24.3946 3.48055 24.207 3.29301C24.0195 3.10547 23.7651 3.00012 23.4999 3.00012H13.4999C13.2347 3.00012 12.9804 3.10547 12.7928 3.29301C12.6053 3.48055 12.4999 3.7349 12.4999 4.00012C12.4999 4.26533 12.6053 4.51969 12.7928 4.70722C12.9804 4.89476 13.2347 5.00012 13.4999 5.00012H23.4999C23.7651 5.00012 24.0195 4.89476 24.207 4.70722C24.3946 4.51969 24.4999 4.26533 24.4999 4.00012ZM6.59993 13.1381L10.1889 9.72412C10.2891 9.63494 10.3703 9.52652 10.4277 9.40531C10.4851 9.2841 10.5176 9.15259 10.5231 9.01858C10.5287 8.88458 10.5072 8.75083 10.46 8.62529C10.4128 8.49976 10.3408 8.385 10.2484 8.28784C10.1559 8.19069 10.0449 8.11312 9.92183 8.05977C9.79878 8.00641 9.66626 7.97835 9.53214 7.97725C9.39803 7.97616 9.26507 8.00206 9.14117 8.0534C9.01727 8.10474 8.90496 8.18048 8.81093 8.27612L5.21093 11.7071C5.02056 11.8891 4.76732 11.9907 4.50393 11.9907C4.24054 11.9907 3.9873 11.8891 3.79693 11.7071L2.20693 10.1221C2.01833 9.93996 1.76572 9.83916 1.50353 9.84144C1.24133 9.84372 0.990519 9.94889 0.805111 10.1343C0.619703 10.3197 0.514534 10.5705 0.512255 10.8327C0.509977 11.0949 0.610771 11.3475 0.792929 11.5361L2.37793 13.1211C2.9376 13.6809 3.69585 13.9968 4.48743 14C5.27901 14.0032 6.03977 13.6934 6.60393 13.1381H6.59993ZM24.4999 12.0001C24.4999 11.7349 24.3946 11.4805 24.207 11.293C24.0195 11.1055 23.7651 11.0001 23.4999 11.0001H13.4999C13.2347 11.0001 12.9804 11.1055 12.7928 11.293C12.6053 11.4805 12.4999 11.7349 12.4999 12.0001C12.4999 12.2653 12.6053 12.5197 12.7928 12.7072C12.9804 12.8948 13.2347 13.0001 13.4999 13.0001H23.4999C23.7651 13.0001 24.0195 12.8948 24.207 12.7072C24.3946 12.5197 24.4999 12.2653 24.4999 12.0001ZM6.59993 21.1381L10.1849 17.7241C10.2851 17.6349 10.3663 17.5265 10.4237 17.4053C10.4811 17.2841 10.5136 17.1526 10.5191 17.0186C10.5247 16.8846 10.5032 16.7508 10.456 16.6253C10.4088 16.4998 10.3368 16.385 10.2444 16.2878C10.1519 16.1907 10.0409 16.1131 9.91783 16.0598C9.79478 16.0064 9.66226 15.9783 9.52814 15.9773C9.39403 15.9762 9.26107 16.0021 9.13717 16.0534C9.01327 16.1047 8.90096 16.1805 8.80693 16.2761L5.20693 19.7071C5.11074 19.8039 4.99576 19.8799 4.86907 19.9306C4.74239 19.9813 4.60668 20.0055 4.47029 20.0017C4.3339 19.998 4.19972 19.9664 4.07601 19.9088C3.95229 19.8513 3.84167 19.769 3.75093 19.6671L2.16593 18.2531C1.96781 18.0765 1.70764 17.9858 1.44265 18.001C1.17766 18.0162 0.929563 18.136 0.752929 18.3341C0.576295 18.5322 0.485597 18.7924 0.500787 19.0574C0.515978 19.3224 0.635812 19.5705 0.833929 19.7471L2.37793 21.1211C2.9376 21.6809 3.69585 21.9968 4.48743 22C5.27901 22.0032 6.03977 21.6934 6.60393 21.1381H6.59993ZM24.4999 20.0001C24.4999 19.7349 24.3946 19.4805 24.207 19.293C24.0195 19.1055 23.7651 19.0001 23.4999 19.0001H13.4999C13.2347 19.0001 12.9804 19.1055 12.7928 19.293C12.6053 19.4805 12.4999 19.7349 12.4999 20.0001C12.4999 20.2653 12.6053 20.5197 12.7928 20.7072C12.9804 20.8948 13.2347 21.0001 13.4999 21.0001H23.4999C23.7651 21.0001 24.0195 20.8948 24.207 20.7072C24.3946 20.5197 24.4999 20.2653 24.4999 20.0001Z" fill="#616C94"/>
</g>
<defs>
<clipPath id="clip0_41_340">
<rect width="24" height="24" fill="white" transform="translate(0.5)"/>
</clipPath>
</defs>
</svg>
