<svg width="25" height="24" viewBox="0 0 25 24" fill="none" xmlns="http://www.w3.org/2000/svg">
<g clip-path="url(#clip0_41_313)">
<path d="M12.7001 6C11.909 6 11.1356 6.2346 10.4778 6.67412C9.82 7.11365 9.30731 7.73836 9.00456 8.46927C8.70181 9.20017 8.62259 10.0044 8.77693 10.7804C8.93127 11.5563 9.31224 12.269 9.87165 12.8284C10.4311 13.3878 11.1438 13.7688 11.9197 13.9231C12.6956 14.0775 13.4999 13.9983 14.2308 13.6955C14.9617 13.3928 15.5864 12.8801 16.026 12.2223C16.4655 11.5645 16.7001 10.7911 16.7001 10C16.7001 8.93913 16.2786 7.92172 15.5285 7.17157C14.7784 6.42143 13.7609 6 12.7001 6ZM12.7001 12C12.3045 12 11.9178 11.8827 11.5889 11.6629C11.26 11.4432 11.0037 11.1308 10.8523 10.7654C10.7009 10.3999 10.6613 9.99778 10.7385 9.60982C10.8157 9.22186 11.0062 8.86549 11.2859 8.58579C11.5656 8.30608 11.9219 8.1156 12.3099 8.03843C12.6979 7.96126 13.1 8.00087 13.4654 8.15224C13.8309 8.30362 14.1433 8.55996 14.363 8.88886C14.5828 9.21776 14.7001 9.60444 14.7001 10C14.7001 10.5304 14.4894 11.0391 14.1143 11.4142C13.7392 11.7893 13.2305 12 12.7001 12Z" fill="#616C94"/>
<path d="M12.6999 24.0003C11.8578 24.0046 11.027 23.8071 10.277 23.4243C9.52692 23.0416 8.87949 22.4847 8.3889 21.8003C4.5779 16.5433 2.6449 12.5913 2.6449 10.0533C2.6449 7.38654 3.70426 4.82901 5.58994 2.94333C7.47562 1.05765 10.0331 -0.00170898 12.6999 -0.00170898C15.3666 -0.00170898 17.9242 1.05765 19.8099 2.94333C21.6955 4.82901 22.7549 7.38654 22.7549 10.0533C22.7549 12.5913 20.8219 16.5433 17.0109 21.8003C16.5203 22.4847 15.8729 23.0416 15.1228 23.4243C14.3728 23.8071 13.542 24.0046 12.6999 24.0003ZM12.6999 2.18129C10.6123 2.18367 8.61091 3.01402 7.13477 4.49016C5.65862 5.96631 4.82828 7.96771 4.8259 10.0553C4.8259 12.0653 6.7189 15.7823 10.1549 20.5213C10.4466 20.9231 10.8293 21.2501 11.2716 21.4756C11.714 21.701 12.2034 21.8186 12.6999 21.8186C13.1964 21.8186 13.6858 21.701 14.1282 21.4756C14.5705 21.2501 14.9532 20.9231 15.2449 20.5213C18.6809 15.7823 20.5739 12.0653 20.5739 10.0553C20.5715 7.96771 19.7412 5.96631 18.265 4.49016C16.7889 3.01402 14.7875 2.18367 12.6999 2.18129Z" fill="#616C94"/>
</g>
<defs>
<clipPath id="clip0_41_313">
<rect width="24" height="24" fill="white" transform="translate(0.699951)"/>
</clipPath>
</defs>
</svg>
