<svg width="25" height="24" viewBox="0 0 25 24" fill="none" xmlns="http://www.w3.org/2000/svg">
<g clip-path="url(#clip0_41_358)">
<path d="M12.1001 10C11.3044 10 10.5414 9.68393 9.97878 9.12132C9.41617 8.55871 9.1001 7.79565 9.1001 7C9.1001 6.20435 9.41617 5.44129 9.97878 4.87868C10.5414 4.31607 11.3044 4 12.1001 4C12.8957 4 13.6588 4.31607 14.2214 4.87868C14.784 5.44129 15.1001 6.20435 15.1001 7C15.1001 7.79565 14.784 8.55871 14.2214 9.12132C13.6588 9.68393 12.8957 10 12.1001 10ZM9.0681 15.249C9.27373 14.6065 9.67816 14.046 10.223 13.6483C10.7679 13.2506 11.425 13.0363 12.0996 13.0363C12.7742 13.0363 13.4313 13.2506 13.9762 13.6483C14.521 14.046 14.9255 14.6065 15.1311 15.249C15.1974 15.506 15.3631 15.7261 15.5917 15.861C15.8203 15.9958 16.0931 16.0343 16.3501 15.968C16.6071 15.9017 16.8272 15.736 16.9621 15.5074C17.0969 15.2788 17.1354 15.006 17.0691 14.749C15.7581 9.802 8.4391 9.804 7.1321 14.749C7.096 14.8772 7.08585 15.0113 7.10227 15.1434C7.11869 15.2755 7.16133 15.4031 7.22769 15.5185C7.29406 15.634 7.38281 15.735 7.48874 15.8157C7.59468 15.8963 7.71565 15.9551 7.84458 15.9884C7.97351 16.0217 8.10779 16.0289 8.23954 16.0096C8.37129 15.9903 8.49787 15.9449 8.61183 15.876C8.7258 15.8071 8.82486 15.7162 8.90321 15.6085C8.98156 15.5009 9.03762 15.3786 9.0681 15.249ZM12.1091 23.665C11.6157 23.6653 11.1395 23.4841 10.7711 23.156L7.0231 20H4.1001C3.03923 20 2.02182 19.5786 1.27167 18.8284C0.521525 18.0783 0.100098 17.0609 0.100098 16V4C0.100098 2.93913 0.521525 1.92172 1.27167 1.17157C2.02182 0.421427 3.03923 0 4.1001 0L20.1001 0C21.161 0 22.1784 0.421427 22.9285 1.17157C23.6787 1.92172 24.1001 2.93913 24.1001 4V16C24.1001 17.0609 23.6787 18.0783 22.9285 18.8284C22.1784 19.5786 21.161 20 20.1001 20H17.2471L13.4001 23.18C13.0437 23.4943 12.5843 23.6669 12.1091 23.665ZM4.1001 2C3.56966 2 3.06096 2.21071 2.68588 2.58579C2.31081 2.96086 2.1001 3.46957 2.1001 4V16C2.1001 16.5304 2.31081 17.0391 2.68588 17.4142C3.06096 17.7893 3.56966 18 4.1001 18H7.3891C7.62475 18 7.85283 18.0832 8.0331 18.235L12.0791 21.645L16.2511 18.229C16.4304 18.0809 16.6556 18 16.8881 18H20.1001C20.6305 18 21.1392 17.7893 21.5143 17.4142C21.8894 17.0391 22.1001 16.5304 22.1001 16V4C22.1001 3.46957 21.8894 2.96086 21.5143 2.58579C21.1392 2.21071 20.6305 2 20.1001 2H4.1001Z" fill="#616C94"/>
</g>
<defs>
<clipPath id="clip0_41_358">
<rect width="24" height="24" fill="white" transform="translate(0.100098)"/>
</clipPath>
</defs>
</svg>
