<svg width="25" height="24" viewBox="0 0 25 24" fill="none" xmlns="http://www.w3.org/2000/svg">
<g clip-path="url(#clip0_41_345)">
<path d="M7.90002 0H4.90002C3.83916 0 2.82174 0.421427 2.0716 1.17157C1.32145 1.92172 0.900024 2.93913 0.900024 4L0.900024 7C0.900024 8.06087 1.32145 9.07828 2.0716 9.82843C2.82174 10.5786 3.83916 11 4.90002 11H7.90002C8.96089 11 9.97831 10.5786 10.7285 9.82843C11.4786 9.07828 11.9 8.06087 11.9 7V4C11.9 2.93913 11.4786 1.92172 10.7285 1.17157C9.97831 0.421427 8.96089 0 7.90002 0V0ZM9.90002 7C9.90002 7.53043 9.68931 8.03914 9.31424 8.41421C8.93917 8.78929 8.43046 9 7.90002 9H4.90002C4.36959 9 3.86088 8.78929 3.48581 8.41421C3.11074 8.03914 2.90002 7.53043 2.90002 7V4C2.90002 3.46957 3.11074 2.96086 3.48581 2.58579C3.86088 2.21071 4.36959 2 4.90002 2H7.90002C8.43046 2 8.93917 2.21071 9.31424 2.58579C9.68931 2.96086 9.90002 3.46957 9.90002 4V7Z" fill="#616C94"/>
<path d="M20.8999 0H17.8999C16.839 0 15.8216 0.421428 15.0715 1.17157C14.3213 1.92172 13.8999 2.93914 13.8999 4V7C13.8999 8.06087 14.3213 9.07829 15.0715 9.82843C15.8216 10.5786 16.839 11 17.8999 11H20.8999C21.9608 11 22.9782 10.5786 23.7283 9.82843C24.4785 9.07829 24.8999 8.06087 24.8999 7V4C24.8999 2.93914 24.4785 1.92172 23.7283 1.17157C22.9782 0.421428 21.9608 0 20.8999 0V0ZM22.8999 7C22.8999 7.53044 22.6892 8.03915 22.3141 8.41422C21.939 8.78929 21.4303 9.00001 20.8999 9.00001H17.8999C17.3695 9.00001 16.8608 8.78929 16.4857 8.41422C16.1106 8.03915 15.8999 7.53044 15.8999 7V4C15.8999 3.46957 16.1106 2.96086 16.4857 2.58579C16.8608 2.21072 17.3695 2 17.8999 2H20.8999C21.4303 2 21.939 2.21072 22.3141 2.58579C22.6892 2.96086 22.8999 3.46957 22.8999 4V7Z" fill="#616C94"/>
<path d="M7.90002 13H4.90002C3.83916 13 2.82174 13.4214 2.0716 14.1716C1.32145 14.9217 0.900024 15.9391 0.900024 17L0.900024 20C0.900024 21.0609 1.32145 22.0783 2.0716 22.8284C2.82174 23.5786 3.83916 24 4.90002 24H7.90002C8.96089 24 9.97831 23.5786 10.7285 22.8284C11.4786 22.0783 11.9 21.0609 11.9 20V17C11.9 15.9391 11.4786 14.9217 10.7285 14.1716C9.97831 13.4214 8.96089 13 7.90002 13ZM9.90002 20C9.90002 20.5304 9.68931 21.0392 9.31424 21.4142C8.93917 21.7893 8.43046 22 7.90002 22H4.90002C4.36959 22 3.86088 21.7893 3.48581 21.4142C3.11074 21.0392 2.90002 20.5304 2.90002 20V17C2.90002 16.4696 3.11074 15.9609 3.48581 15.5858C3.86088 15.2107 4.36959 15 4.90002 15H7.90002C8.43046 15 8.93917 15.2107 9.31424 15.5858C9.68931 15.9609 9.90002 16.4696 9.90002 17V20Z" fill="#616C94"/>
<path d="M20.8999 13H17.8999C16.839 13 15.8216 13.4214 15.0715 14.1716C14.3213 14.9217 13.8999 15.9391 13.8999 17V20C13.8999 21.0609 14.3213 22.0783 15.0715 22.8284C15.8216 23.5786 16.839 24 17.8999 24H20.8999C21.9608 24 22.9782 23.5786 23.7283 22.8284C24.4785 22.0783 24.8999 21.0609 24.8999 20V17C24.8999 15.9391 24.4785 14.9217 23.7283 14.1716C22.9782 13.4214 21.9608 13 20.8999 13ZM22.8999 20C22.8999 20.5304 22.6892 21.0392 22.3141 21.4142C21.939 21.7893 21.4303 22 20.8999 22H17.8999C17.3695 22 16.8608 21.7893 16.4857 21.4142C16.1106 21.0392 15.8999 20.5304 15.8999 20V17C15.8999 16.4696 16.1106 15.9609 16.4857 15.5858C16.8608 15.2107 17.3695 15 17.8999 15H20.8999C21.4303 15 21.939 15.2107 22.3141 15.5858C22.6892 15.9609 22.8999 16.4696 22.8999 17V20Z" fill="#616C94"/>
</g>
<defs>
<clipPath id="clip0_41_345">
<rect width="24" height="24" fill="white" transform="translate(0.900024)"/>
</clipPath>
</defs>
</svg>
