<svg width="70" height="70" viewBox="0 0 70 70" fill="none" xmlns="http://www.w3.org/2000/svg">
<g clip-path="url(#clip0_42_213)">
<rect width="70" height="70" rx="35" fill="white"/>
<g clip-path="url(#clip1_42_213)">
<path d="M35 14C30.8466 14 26.7865 15.2316 23.333 17.5391C19.8796 19.8466 17.188 23.1264 15.5985 26.9636C14.0091 30.8009 13.5932 35.0233 14.4035 39.0969C15.2138 43.1705 17.2139 46.9123 20.1508 49.8492C23.0877 52.7861 26.8295 54.7862 30.9031 55.5965C34.9767 56.4068 39.1991 55.9909 43.0364 54.4015C46.8736 52.812 50.1534 50.1204 52.4609 46.667C54.7684 43.2135 56 39.1534 56 35C55.994 29.4323 53.7796 24.0944 49.8426 20.1574C45.9056 16.2204 40.5677 14.006 35 14V14ZM51.7528 29.96L36.1638 32.991C35.9184 32.6123 35.7031 32.215 35.5198 31.8028L29.6748 18.3278C31.8875 17.6185 34.2195 17.3576 36.5343 17.5604C38.8491 17.7632 41.1002 18.4255 43.156 19.5086C45.2117 20.5917 47.0309 22.0739 48.507 23.8685C49.9831 25.663 51.0865 27.7339 51.7528 29.96ZM35 52.5C31.1275 52.5014 27.3639 51.2177 24.2995 48.85C21.2351 46.4824 19.043 43.1647 18.067 39.4172C17.091 35.6696 17.3862 31.7041 18.9064 28.1425C20.4266 24.5808 23.0857 21.6243 26.467 19.7365L32.3085 33.1958C33.1397 35.1088 34.4449 36.7784 36.1008 38.0468L47.7435 46.9578C46.1126 48.7056 44.1398 50.0995 41.9476 51.0529C39.7554 52.0063 37.3906 52.4989 35 52.5ZM49.875 44.1788L39.1563 35.9748L52.423 33.397C52.4703 33.922 52.5035 34.4593 52.5035 35C52.502 38.2451 51.5914 41.4248 49.875 44.1788Z" fill="#729FFF"/>
</g>
</g>
<defs>
<clipPath id="clip0_42_213">
<rect width="70" height="70" rx="35" fill="white"/>
</clipPath>
<clipPath id="clip1_42_213">
<rect width="42" height="42" fill="white" transform="translate(14 14)"/>
</clipPath>
</defs>
</svg>
